<svg id="Layer_1" data-name="Layer 1" xmlns="http://www.w3.org/2000/svg" viewBox="0 0 1304.56 480"><defs><style>.cls-1{fill:#fafafa;}.cls-2{fill:#231f20;}.cls-3{fill:none;stroke:#f9fafb;stroke-miterlimit:10;stroke-width:20px;}</style></defs><title>bg</title><rect class="cls-1" width="1304.56" height="474.08"/><path d="M185.51,180.74l-8.25,11.63-12.55-9.25-0.09-7.58c-0.18-5.87-3.8-7.87-8-10.1L94,131.8,9.16,85.58l-4.05-2.2c0.17-1.29.36-2.58,0.59-3.85A95.62,95.62,0,0,1,195.58,95.1c0.08,14.11-11.45,26.57-25.56,27.08a26.55,26.55,0,1,1,19.73-43.12,91.23,91.23,0,0,0-155-47.32L80,56.39l0.11,0.07,15.25,8.3v0.14l43,23.84a30,30,0,0,0,49.11,30.83c12.85,22.93,17.13,30.77-2,61.16"/><line class="cls-2" x1="171.98" y1="187.15" x2="177.27" y2="183.73"/><path d="M174,189.65a106.22,106.22,0,0,1,40.48,80.71c0,0.95,0,1.89,0,2.84A106.38,106.38,0,0,1,108.09,379.58V375.2c24.31,0,44-12.07,44-44v-116c0-20.22-5.33-33.1-19.65-41L94.89,153.7l-31,17V341h0c0,20.58,22.62,34.16,44.22,34.16v4.38a106,106,0,0,1-68.46-25L40.33,479.7s-36,.83-36-0.28V193.31l30.9-15.88,59.68-32.67,61.47,33.65,0.16,0c2.16,1.12,4.27,2.29,6.34,3.54l0.23,0.13h0c0.92,0.56,1.83,1.12,2.73,1.7"/><path class="cls-2" d="M45.75,127.63"/><path class="cls-2" d="M80.06,37.2"/><path class="cls-3" d="M16.52,184.37c10.72,17.83,35.91,35.14,50.2,39.26"/><path d="M164.72,200.24A95.57,95.57,0,0,1,0,134.76c-0.08-14.68,11.94-27.16,26.62-27.12a26.55,26.55,0,1,1-20.8,43.14,91.23,91.23,0,0,0,155,47.32"/><path d="M317.89,184.41a35.19,35.19,0,0,1-70.38,0,13.94,13.94,0,1,1,2.21,7.51c4.05,19.38,23.34,27.12,33,26.51,10.79,0.68,33.74-9.11,33.74-34,0-8-4-14.57-14.55-14.57H282.7a35.18,35.18,0,0,1-34.93-31h0v0a34.59,34.59,0,0,1-.26-4.17A35.19,35.19,0,0,1,282.7,99.48h37.22s-0.53,39.38-33.59,39.38h-37c1.25,6,5.49,10.36,14.15,10.36H282.7A35.19,35.19,0,0,1,317.89,184.41Z"/><path d="M447,97.09v2.3c-4.26,0-5.53,2-5.53,6.22v46.21h0c0,0.35,0,.69,0,1,0,30.8-23.49,55.76-54.29,55.76s-54.29-25-54.29-55.76a62.12,62.12,0,0,1,.33-6.39l-0.33-.51V117.38l0.39-.38,36.35-19.9v2.3c-3.9,2.27-5.51,3.71-5.52,7.84v76c0,16.74,10.33,23.07,23.08,23.07s23.07-6.33,23.07-23.07V105.52c0-4.12-1.3-6.12-5.52-6.12v-2.3H447Z"/><path d="M565.65,33.58V200.17c0,4.19,1.27,6.22,5.53,6.22v2.3H515.27a55.76,55.76,0,0,1,0-111.51h19.17V33.58c0-4.19-1.27-6.22-5.53-6.22v-2.3h42.27v2.3C566.92,27.36,565.65,29.39,565.65,33.58ZM515.37,206.4h13.54c4.26,0,5.53-2,5.53-6.22V99.48H515.27c-12.58.12-22.73,6.48-22.73,23.07v60.78C492.53,200,502.74,206.32,515.37,206.4Z"/><path d="M699.59,206.4v2.3H657.32v-2.3c4.23,0,5.5-2,5.52-6.12V122.54c0-16.74-10.33-23.07-23.08-23.07-7.78,0-14.64,2.36-18.82,8v92.7c0,4.19,1.26,6.22,5.52,6.22v2.3H584.2v-2.3c4.26,0,5.53-2,5.53-6.22V33.58c0-4.19-1.27-6.22-5.53-6.22v-2.3h42.27v2.3c-4.26,0-5.52,2-5.52,6.22v66.92a54.1,54.1,0,0,1,18.82-3.33c30.8,0,54.29,25,54.29,55.76,0,0.35,0,.69,0,1h0v46.21C694.06,204.36,695.33,206.4,699.59,206.4Z"/><path d="M822.59,107.3v92.88c0,4.19,1.27,6.22,5.53,6.22v2.3H767.84a55.76,55.76,0,0,1,.35-111.52v2.3c-12.74,0-23.08,6.33-23.08,23.07v60.78c0,16.65,10.21,23,22.84,23.08h17.9c4.26,0,5.53-2,5.53-6.22v-82.8h0c0-10.78-11.86-17.91-23.17-17.91v-2.3a55.54,55.54,0,0,1,35.88,13.08l24-13.16v2.3C824.19,101.68,822.59,103.12,822.59,107.3Z"/><path d="M960.54,206.4v2.3H918.27v-2.3c4.23,0,5.5-2,5.52-6.12V122.54c0-16.74-10.33-23.07-23.08-23.07s-23.07,6.33-23.07,23.07v77.63c0,4.19,1.27,6.22,5.53,6.22v2.3H840.91v-2.3c4.26,0,5.52-2,5.52-6.22v-82.8l0.39-.38,36.36-19.9v2.3a26.34,26.34,0,0,0-2.46,1.57,54,54,0,0,1,20-3.79c30.8,0,54.29,25,54.29,55.76,0,0.35,0,.69,0,1h0v46.21C955,204.36,956.28,206.4,960.54,206.4Z"/><path d="M1043.89,184.41a35.19,35.19,0,0,1-70.38,0,13.94,13.94,0,1,1,2.21,7.51c4.05,19.38,23.34,27.12,33,26.51,10.79,0.68,33.74-9.11,33.74-34,0-8-4-14.57-14.55-14.57H1008.7a35.18,35.18,0,0,1-34.93-31h0v0a34.7,34.7,0,0,1-.25-4.17,35.19,35.19,0,0,1,35.18-35.18h37.22s-0.53,39.38-33.59,39.38h-37c1.25,6,5.49,10.36,14.15,10.36h19.18A35.19,35.19,0,0,1,1043.89,184.41Z"/><path d="M1174.31,206.4v2.3H1132v-2.3c4.23,0,5.5-2,5.52-6.12V122.54c0-16.74-10.33-23.07-23.08-23.07-7.78,0-14.64,2.36-18.82,8v92.7c0,4.19,1.26,6.22,5.52,6.22v2.3h-42.27v-2.3c4.26,0,5.53-2,5.53-6.22V33.58c0-4.19-1.27-6.22-5.53-6.22v-2.3h42.27v2.3c-4.26,0-5.52,2-5.52,6.22v66.92a54.1,54.1,0,0,1,18.82-3.33c30.8,0,54.29,25,54.29,55.76,0,0.35,0,.69,0,1h0v46.21C1168.77,204.36,1170,206.4,1174.31,206.4Z"/><path d="M1301.25,97.09v2.3c-4.26,0-5.53,2-5.53,6.22v46.21h0c0,0.35,0,.69,0,1,0,30.8-23.49,55.76-54.28,55.76s-54.29-25-54.29-55.76a62,62,0,0,1,.33-6.39l-0.33-.51V117.38l0.39-.38,36.35-19.9v2.3c-3.9,2.27-5.51,3.71-5.52,7.84v76c0,16.74,10.33,23.07,23.08,23.07s23.07-6.33,23.07-23.07V105.52c0-4.12-1.3-6.12-5.52-6.12v-2.3h42.27Z"/><path d="M307.55,373.65H287v68.28c0,4.5,1.36,6.68,5.94,6.68v2.47H247.52v-2.47c4.58,0,5.94-2.18,5.94-6.68V263.06c0-4.49-1.36-6.68-5.94-6.68v-2.47h60A59.86,59.86,0,0,1,307.55,373.65ZM332,281.15c0-17.87-11-24.69-24.52-24.77H292.9c-4.58,0-5.94,2.19-5.94,6.68V371.18h20.59c13.51-.12,24.41-6.95,24.41-24.77V281.15Z"/><path d="M499.3,264.79V364.5c0,4.5,1.36,6.68,5.94,6.68v2.47H440.53a59.87,59.87,0,0,1,.37-119.73v2.47c-13.68,0-24.77,6.79-24.77,24.77v65.26c0,17.88,11,24.69,24.52,24.78h19.21c4.58,0,5.94-2.18,5.94-6.68V275.61h0c0-11.58-12.74-19.23-24.88-19.23v-2.47a59.63,59.63,0,0,1,38.52,14l25.82-14.13v2.47C501,258.76,499.3,260.3,499.3,264.79Z"/><path d="M594.53,347.58a37.78,37.78,0,0,1-75.56,0,15,15,0,1,1,2.38,8.07c4.35,20.81,25.06,29.11,35.4,28.46,11.59,0.73,36.22-9.78,36.22-36.53,0-8.64-4.28-15.64-15.62-15.64h-20.6a37.77,37.77,0,0,1-37.5-33.27h0v0a37.12,37.12,0,0,1-.27-4.47,37.78,37.78,0,0,1,37.78-37.78h40s-0.57,42.28-36.06,42.28H521c1.35,6.44,5.9,11.13,15.19,11.13h20.59A37.78,37.78,0,0,1,594.53,347.58Z"/><path d="M686.22,347.58a37.78,37.78,0,0,1-75.56,0,15,15,0,1,1,2.38,8.07c4.35,20.81,25.06,29.11,35.4,28.46,11.59,0.73,36.22-9.78,36.22-36.53,0-8.64-4.28-15.64-15.62-15.64h-20.6a37.77,37.77,0,0,1-37.5-33.27h0v0a37.12,37.12,0,0,1-.27-4.47,37.78,37.78,0,0,1,37.78-37.78h40s-0.57,42.28-36.06,42.28H612.65c1.35,6.44,5.9,11.13,15.19,11.13h20.59A37.78,37.78,0,0,1,686.22,347.58Z"/><path d="M741.79,358.74v5.76c0,4.5,1.36,6.68,5.94,6.68v2.47H702.34v-2.47c4.58,0,5.94-2.18,5.94-6.68V275.61l0.41-.41,39-21.37v2.47c-4.22,2.46-5.94,4-5.94,8.48v94ZM708,231.85a16.74,16.74,0,1,1,16.74,16.74A16.75,16.75,0,0,1,708,231.85Z"/></svg>