<svg id="Layer_1" data-name="Layer 1" xmlns="http://www.w3.org/2000/svg" viewBox="0 0 1314.07 497.09"><defs><style>.cls-1{fill:#fafafa;}.cls-2{fill:#231f20;}.cls-3{fill:none;stroke:#f9fafb;stroke-miterlimit:10;stroke-width:20px;}.cls-4{font-size:258px;font-family:Migur;}.cls-5{font-size:277px;}</style></defs><title>bg</title><rect class="cls-1" y="17.09" width="1304.56" height="474.08"/><path class="cls-2" d="M185.51,180.74l-8.25,11.63-12.55-9.25-0.09-7.58c-0.18-5.87-3.8-7.87-8-10.1L94,131.8,9.16,85.58l-4.05-2.2c0.17-1.29.36-2.58,0.59-3.85A95.62,95.62,0,0,1,195.58,95.1c0.08,14.11-11.45,26.57-25.56,27.08a26.55,26.55,0,1,1,19.73-43.12,91.23,91.23,0,0,0-155-47.32L80,56.39l0.11,0.07,15.25,8.3v0.14l43,23.84a30,30,0,0,0,49.11,30.83c12.85,22.93,17.13,30.77-2,61.16" transform="translate(0 17.09)"/><line class="cls-2" x1="171.98" y1="204.24" x2="177.27" y2="200.82"/><path class="cls-2" d="M174,189.65a106.22,106.22,0,0,1,40.48,80.71c0,0.95,0,1.89,0,2.84A106.38,106.38,0,0,1,108.09,379.58V375.2c24.31,0,44-12.07,44-44v-116c0-20.22-5.33-33.1-19.65-41L94.89,153.7l-31,17V341h0c0,20.58,22.62,34.16,44.22,34.16v4.38a106,106,0,0,1-68.46-25L40.33,479.7s-36,.83-36-0.28V193.31l30.9-15.88,59.68-32.67,61.47,33.65,0.16,0c2.16,1.12,4.27,2.29,6.34,3.54l0.23,0.13h0c0.92,0.56,1.83,1.12,2.73,1.7" transform="translate(0 17.09)"/><path class="cls-2" d="M45.75,127.63" transform="translate(0 17.09)"/><path class="cls-2" d="M80.06,37.2" transform="translate(0 17.09)"/><path class="cls-3" d="M16.52,184.37c10.72,17.83,35.91,35.14,50.2,39.26" transform="translate(0 17.09)"/><path class="cls-2" d="M164.72,200.24A95.57,95.57,0,0,1,0,134.76c-0.08-14.68,11.94-27.16,26.62-27.12a26.55,26.55,0,1,1-20.8,43.14,91.23,91.23,0,0,0,155,47.32" transform="translate(0 17.09)"/><text class="cls-4" transform="translate(247.52 226.4)">sudhanshu<tspan class="cls-5"><tspan x="0" y="165">passi</tspan></tspan></text><text y="17.09"/></svg>